<svg xmlns="http://www.w3.org/2000/svg" viewBox="0 0 512 512">
  <rect width="512" height="512" rx="15%" fill="#4776E6"/>
  <path fill="#fff" d="M256 96c-33 0-60.8 17.8-76 44.1-7.3-2.6-15.2-4.1-23.5-4.1-38.5 0-69.7 31.2-69.7 69.7 0 38.5 31.2 69.7 69.7 69.7 8.3 0 16.2-1.5 23.5-4.1 15.2 26.3 43 44.1 76 44.1s60.8-17.8 76-44.1c7.3 2.6 15.2 4.1 23.5 4.1 38.5 0 69.7-31.2 69.7-69.7 0-38.5-31.2-69.7-69.7-69.7-8.3 0-16.2 1.5-23.5 4.1-15.2-26.3-43-44.1-76-44.1zm0 32c26.9 0 48.4 21.5 48.4 48.4V304c0 26.9-21.5 48.4-48.4 48.4s-48.4-21.5-48.4-48.4V176.4c0-26.9 21.5-48.4 48.4-48.4z"/>
  <path fill="#fff" d="M363.5 152H400c8.8 0 16 7.2 16 16v176c0 8.8-7.2 16-16 16h-36.5M148.5 152H112c-8.8 0-16 7.2-16 16v176c0 8.8 7.2 16 16 16h36.5"/>
</svg> 